<svg id="Layer_1" data-name="Layer 1" xmlns="http://www.w3.org/2000/svg" xmlns:xlink="http://www.w3.org/1999/xlink" viewBox="0 0 402.85 189.83"><defs><style>.cls-1,.cls-4,.cls-5{fill:none;}.cls-2{clip-path:url(#clip-path);}.cls-3{fill:#283487;}.cls-4{stroke:#fff;stroke-width:36.85px;}.cls-4,.cls-5{stroke-miterlimit:10;}.cls-5{stroke:#dd2727;stroke-width:11.34px;}.cls-6{fill:#dd2727;}.cls-7{fill:#fff;}</style><clipPath id="clip-path"><rect class="cls-1" x="-0.54" width="403.39" height="189.83"/></clipPath></defs><title>flag</title><g class="cls-2"><rect class="cls-3" x="-0.54" width="403.39" height="189.83"/><line class="cls-4" x1="-0.54" x2="402.85" y2="189.83"/><line class="cls-5" x1="-0.54" x2="402.85" y2="189.83"/><line class="cls-4" x1="402.85" x2="-8.58" y2="189.83"/><line class="cls-5" x1="402.85" x2="-8.58" y2="189.83"/><polygon class="cls-6" points="169.78 194.08 169.78 126.29 -4.79 126.29 -4.79 63.54 169.78 63.54 169.78 -4.25 232.52 -4.25 232.52 63.54 407.1 63.54 407.1 126.29 232.52 126.29 232.52 194.08 169.78 194.08"/><path class="cls-7" d="M228.27,0V67.8H402.85V122H228.27v67.8H174V122H-.54V67.8H174V0h54.24m8.5-8.5H165.53V59.29H-9v71.25H165.53v67.79h71.24V130.54H411.35V59.29H236.77V-8.5Z"/></g></svg>