<svg aria-hidden="true" style="position: absolute; width: 0; height: 0; overflow: hidden;" version="1.1" xmlns="http://www.w3.org/2000/svg" xmlns:xlink="http://www.w3.org/1999/xlink">
<defs>
<symbol id="btn-selector" viewBox="0 0 27 32">
<path fill="#212d90" style="fill: var(--color1, #212d90)" d="M26.88 16.102l-26.007 14.812 0.176-29.929 25.832 15.117z"></path>
</symbol>
<symbol id="facebook" viewBox="0 0 32 32">
<path fill="#2c358b" style="fill: var(--color2, #2c358b)" d="M19.758 7.989h-2.559c-1.52 0-3.21 0.639-3.21 2.842 0.008 0.768 0 1.502 0 2.33h-1.757v2.797h1.811v8.057h3.33v-8.107h2.198l0.198-2.752h-2.454s0.006-1.223 0-1.579c0-0.87 0.906-0.821 0.961-0.821 0.431 0 1.268 0 1.484 0v-2.765z"></path>
</symbol>
<symbol id="instagram" viewBox="0 0 32 32">
<path fill="#2c358b" style="fill: var(--color2, #2c358b)" d="M23.945 11.993v7.882c-0.011 0.055-0.020 0.11-0.034 0.164-0.103 0.392-0.156 0.81-0.324 1.173-0.8 1.721-2.162 2.639-4.067 2.66-2.347 0.026-4.695 0.008-7.043 0-0.003 0-0.007 0-0.011 0-0.312 0-0.616-0.031-0.911-0.089l0.030 0.005c-2.024-0.41-3.525-2.175-3.525-4.29 0-0.003 0-0.006 0-0.008v0q-0.008-3.56 0-7.121c-0-0.017-0-0.037-0-0.057 0-0.279 0.030-0.552 0.088-0.814l-0.005 0.025c0.412-1.773 1.498-2.909 3.25-3.402 0.218-0.062 0.444-0.088 0.667-0.131h7.882c0.158 0.029 0.316 0.048 0.472 0.085 1.771 0.417 2.909 1.5 3.401 3.254 0.063 0.217 0.089 0.442 0.131 0.664zM16 22.455v0.007h3.461c0.018 0 0.039 0.001 0.060 0.001 0.349 0 0.685-0.055 1-0.158l-0.023 0.006c1.194-0.415 2.036-1.531 2.036-2.844 0-0.021-0-0.041-0.001-0.062l0 0.003c-0.014-2.317 0-4.635 0-6.951 0-0.016 0-0.035 0-0.054 0-0.347-0.055-0.681-0.158-0.995l0.006 0.023c-0.416-1.194-1.532-2.036-2.844-2.036-0.020 0-0.041 0-0.061 0.001l0.003-0c-2.317 0.015-4.635 0-6.951 0-0.016-0-0.035-0-0.053-0-0.348 0-0.682 0.055-0.996 0.157l0.023-0.006c-1.194 0.416-2.035 1.532-2.035 2.844 0 0.024 0 0.048 0.001 0.072l-0-0.004c0.015 2.316 0 4.634 0 6.951-0 0.011-0 0.025-0 0.038 0 0.4 0.072 0.783 0.205 1.137l-0.007-0.022c0.397 1.072 1.479 1.872 2.623 1.888 1.24 0.018 2.476 0.004 3.712 0.004z"></path>
<path fill="#2c358b" style="fill: var(--color2, #2c358b)" d="M20.095 15.939c-0.003 2.259-1.835 4.090-4.095 4.090-2.261 0-4.095-1.833-4.095-4.095s1.833-4.095 4.095-4.095c0.003 0 0.006 0 0.010 0h-0c2.257 0.011 4.083 1.842 4.086 4.1v0zM18.677 15.939c0-0.001 0-0.001 0-0.002 0-1.478-1.198-2.677-2.677-2.677s-2.677 1.198-2.677 2.677c0 1.476 1.195 2.674 2.671 2.677h0c0.004 0 0.009 0 0.014 0 1.474 0 2.668-1.195 2.668-2.668 0-0.003 0-0.007-0-0.010v0.001z"></path>
<path fill="#2c358b" style="fill: var(--color2, #2c358b)" d="M20.271 12.71c-0 0-0.001 0-0.001 0-0.571 0-1.033-0.463-1.033-1.033s0.463-1.033 1.033-1.033c0.569 0 1.031 0.46 1.033 1.028v0c0 0 0 0.001 0 0.001 0 0.571-0.462 1.035-1.032 1.038h-0z"></path>
</symbol>
<symbol id="tiktok" viewBox="0 0 32 32">
<path fill="#2c358b" style="fill: var(--color2, #2c358b)" d="M14.822 13.921v2.789c-0.216-0.071-0.464-0.112-0.722-0.112-0.214 0-0.421 0.028-0.618 0.081l0.017-0.004c-0.98 0.276-1.686 1.162-1.686 2.212 0 0.071 0.003 0.14 0.009 0.209l-0.001-0.009c0.062 0.962 0.9 1.876 1.905 2.037 0.108 0.018 0.232 0.029 0.359 0.029 1.254 0 2.271-1.017 2.272-2.271v-10.705h2.73c0.016 2.056 1.68 3.719 3.735 3.733h0.001v2.662c-0.718 0.084-2.336-0.175-3.716-1.129v0.239q0 2.519 0 5.041c0 1.249-0.362 2.372-1.171 3.33-0.736 0.898-1.781 1.519-2.97 1.701l-0.027 0.003c-1.766 0.271-3.27-0.262-4.486-1.562-0.711-0.753-1.175-1.745-1.26-2.844l-0.001-0.016c-0.148-1.707 0.439-3.126 1.715-4.251 0.722-0.652 1.659-1.078 2.694-1.159l0.016-0.001c0.395-0.032 0.795-0.005 1.204-0.005z"></path>
</symbol>
<symbol id="close" viewBox="0 0 32 32">
<path d="M31.439 3.166l-3.166-3.166-12.553 12.553-12.553-12.553-3.166 3.166 12.553 12.553-12.553 12.553 3.166 3.166 12.553-12.553 12.553 12.553 3.166-3.166-12.553-12.553 12.553-12.553z"></path>
</symbol>
<symbol id="menu" viewBox="0 0 48 32">
<path d="M0 5.333v-5.333h48v5.333h-48zM0 18.667h48v-5.333h-48v5.333zM0 32h48v-5.333h-48v5.333z"></path>
</symbol>
<symbol id="arrow-left" viewBox="0 0 32 32">
<path fill="#dd2626" style="fill: var(--color1, #dd2626)" d="M16 4.398c-6.407 0.002-11.6 5.196-11.6 11.603 0 6.408 5.195 11.603 11.603 11.603s11.603-5.195 11.603-11.603v0c0-6.408-5.195-11.603-11.603-11.603-0.001 0-0.002 0-0.003 0h0zM18.892 21.249c0.198 0.306 0.315 0.68 0.315 1.082 0 1.113-0.902 2.015-2.015 2.015v0c-0.71-0.002-1.333-0.37-1.691-0.925l-0.005-0.008-4.721-7.412 4.721-7.413c0.363-0.564 0.988-0.933 1.7-0.933v0c1.113 0 2.015 0.902 2.015 2.015 0 0.401-0.117 0.775-0.32 1.090l0.005-0.008-3.341 5.249z"></path>
</symbol>
<symbol id="arrow-right" viewBox="0 0 32 32">
<path fill="#dd2626" style="fill: var(--color1, #dd2626)" d="M4.398 16c0 6.408 5.195 11.603 11.603 11.603s11.603-5.195 11.603-11.603c0-6.408-5.195-11.603-11.603-11.603v0c-0 0-0.001 0-0.001 0-6.408 0-11.602 5.194-11.602 11.602 0 0 0 0.001 0 0.001v-0zM16.449 16l-3.341-5.249c-0.198-0.306-0.315-0.68-0.315-1.082 0-1.113 0.902-2.015 2.015-2.015v0c0.711 0 1.336 0.368 1.695 0.925l0.005 0.008 4.721 7.413-4.721 7.412c-0.363 0.564-0.988 0.933-1.7 0.933v0c-1.113-0-2.015-0.902-2.015-2.015 0-0.401 0.117-0.776 0.32-1.090l-0.005 0.008z"></path>
</symbol>
</defs>
</svg>
