<svg id="Layer_1" data-name="Layer 1" xmlns="http://www.w3.org/2000/svg" viewBox="0 0 292.36 242.11"><defs><style>.cls-1{fill:#fff;}.cls-2{fill:#dd2626;}.cls-3{fill:#2b3593;}</style></defs><title>logo</title><path class="cls-1" d="M284.36,93.4H255.82a113.08,113.08,0,0,0-219.28,0H8v56H36.7a113.1,113.1,0,0,0,219,0h28.7Z"/><path class="cls-1" d="M146.18,8A113.09,113.09,0,0,1,255.82,93.4h28.54v56h-28.7a113.1,113.1,0,0,1-219,0H8v-56H36.54A113.09,113.09,0,0,1,146.18,8m0-8a119.82,119.82,0,0,0-75,26A121.88,121.88,0,0,0,30.47,85.4H0v72H30.67a121.11,121.11,0,0,0,231,0h30.67v-72H261.89A121.88,121.88,0,0,0,221.17,26a119.8,119.8,0,0,0-75-26Z"/><path class="cls-2" d="M146.18,47.21a73.85,73.85,0,1,1-73.85,73.85,73.93,73.93,0,0,1,73.85-73.85m0-39.21A113.06,113.06,0,1,0,259.24,121.06,113.06,113.06,0,0,0,146.18,8Z"/><rect class="cls-3" x="8" y="93.4" width="276.36" height="56"/><path class="cls-1" d="M38.3,124.45H33.22v12H28.91V106.31H38c7.63,0,10.46,4.67,10.46,9C48.49,121.53,43.42,124.45,38.3,124.45Zm-.58-14.24h-4.5v10.33H37.9c3.54,0,5.92-1.8,5.92-5.16C43.82,112.77,42.43,110.21,37.72,110.21Z"/><path class="cls-1" d="M67.54,137.11c-8.8,0-16-6.47-16-15.72s7.23-15.71,16-15.71,16,6.46,16,15.71S76.34,137.11,67.54,137.11Zm0-27.39A11.68,11.68,0,1,0,79,121.39,11.4,11.4,0,0,0,67.54,109.72Z"/><path class="cls-1" d="M99.38,136.48H89.59V106.31h9.57c8.75,0,16.3,6.06,16.3,15.08C115.46,130.24,108.32,136.48,99.38,136.48Zm-.13-26.27H93.9v22.36h5c7.82,0,11.95-5.07,11.95-11.18C110.88,114.84,105.53,110.21,99.25,110.21Z"/><path class="cls-1" d="M124.13,132.57h18.55v3.91H116.5l18.68-26.27H118v-3.9h24.79Z"/><path class="cls-1" d="M147.17,136.48V106.31h19.09v3.9H151.48v8.13H163v3.91H151.48v10.32h14.78v3.91Z"/><path class="cls-1" d="M197.56,136.48v-23.8l-10.78,13.65L176,112.68v23.8h-4.31V106.31H176l10.78,14,10.78-14h4.31v30.17Z"/><path class="cls-1" d="M227.2,136.48l-14.1-15.31v15.31h-4.31V106.31h4.31V118l12.35-11.67h5.84l-14.55,13.11,16.35,17.06Z"/><path class="cls-1" d="M258.82,136.48l-3-7.63H242L239,136.48h-4.62L246.88,106h4l12.53,30.49ZM248.9,111l-5.3,14h10.6Z"/></svg>