<svg id="Слой_1" data-name="Слой 1" xmlns="http://www.w3.org/2000/svg" viewBox="0 0 80 300"><defs><style>.cls-1{fill:#2b3593;}.cls-2{fill:#c4c4c4;}</style></defs><title>team_line_2</title><rect class="cls-1" x="29.23" width="20" height="300"/><circle class="cls-2" cx="39.93" cy="86" r="26.5"/><path class="cls-1" d="M39.93,63a23,23,0,1,1-23,23,23,23,0,0,1,23-23m0-7a30,30,0,1,0,30,30,30,30,0,0,0-30-30Z"/><circle class="cls-2" cx="39.93" cy="214" r="26.5"/><path class="cls-1" d="M39.93,191a23,23,0,1,1-23,23,23,23,0,0,1,23-23m0-7a30,30,0,1,0,30,30,30,30,0,0,0-30-30Z"/></svg>